<svg xmlns="http://www.w3.org/2000/svg" xmlns:xlink="http://www.w3.org/1999/xlink" width="17" height="22" version="1.1" viewBox="0 0 17 22"><title>icons_browse_files</title><desc>Created with bin/sketchtool.</desc><g id="02-Chat" fill="none" fill-rule="evenodd" stroke="none" stroke-width="1"><g id="02_13-Chat-member-profile" transform="translate(-1025.000000, -33.000000)"><g id="icons_browse_files" transform="translate(1025.000000, 32.000000)"><g id="Rectangle-5-+-Rectangle-6-Copy" transform="translate(0.000000, 1.000000)"><path id="Rectangle-5" stroke="#76CFA6" d="M0,4.00955791 C0,1.79514022 1.78163126,0 3.99825563,0 L9.59161955,0 C9.59161955,0 16.3225806,6.49234232 16.3225806,6.49234232 L16.3225806,18.0063928 C16.3225806,20.2120012 14.5290874,22 12.3296282,22 L3.99295243,22 C1.7877057,22 0,20.1996477 0,17.9904421 L0,4.00955791 Z"/><path id="Rectangle-6-Copy" fill="#FFF" d="M15.6804916,7.49527496 L11.5273266,7.49527496 C10.3308881,7.49527496 9.3609831,6.52527676 9.3609831,5.3289315 L9.3609831,1.88544393 L15.6804916,7.49527496 Z"/><path id="Rectangle-6" stroke="#76CFA6" d="M16.3225806,7.09677419 L11.4129801,7.09677419 C10.2050375,7.09677419 9.22580645,6.11744908 9.22580645,4.90960051 L9.22580645,0"/></g></g></g></g></svg>
